<svg xmlns="http://www.w3.org/2000/svg" version="1.1" xmlns:xlink="http://www.w3.org/1999/xlink" xmlns:svgjs="http://svgjs.dev/svgjs" width="100%" height="100%" viewBox="0 0 1000 600"><rect width="1000" height="600" x="0" y="0" fill="#ffffff"/><g><rect width="333.3333333333333" height="333.3333333333333" rx="13.333333333333334" ry="13.333333333333334" y="77.77777014838344" fill="#DBD7D7 " transform="matrix(2.2499999313354513,0,0,2.2499999313354517,0,-249.99999084472722)" x="55.55555725097656"/><path d="M311.94712624404224 297.8870136277627Q317.35903271078024 297.8870136277627 319.6590929591439 300.32237153779477Q321.95915320750754 302.802828668383 321.95915320750754 308.66572734068245L321.95915320750754 308.66572734068245Q321.95915320750754 314.52862601298193 319.6590929591439 317.00908314357025Q317.35903271078024 319.4444410536023 311.94712624404224 319.4444410536023L311.94712624404224 319.4444410536023L288.31513467261976 319.4444410536023Q282.9483274264379 319.4444410536023 280.64826717807426 317.00908314357025Q278.3482069297106 314.52862601298193 278.3482069297106 308.66572734068245L278.3482069297106 308.66572734068245L278.3482069297106 214.81424936333465Q278.3482069297106 203.85513876819024 274.78536850577484 198.39813308089614Q271.22253008183895 192.941127393602 263.28506726395653 192.941127393602L263.28506726395653 192.941127393602Q255.84369587219186 192.941127393602 249.48470577377472 199.79620891813678Q243.12571567535758 206.69638966322768 239.4275795897533 219.00847687505657Q235.68434428359288 231.27546486632937 235.68434428359288 246.96999361986948L235.68434428359288 246.96999361986948L235.68434428359288 297.8870136277627L244.70418839482284 297.8870136277627Q250.11609486156084 297.8870136277627 252.4161551099245 300.32237153779477Q254.7162153582881 302.802828668383 254.7162153582881 308.66572734068245L254.7162153582881 308.66572734068245Q254.7162153582881 314.52862601298193 252.4161551099245 317.00908314357025Q250.11609486156084 319.4444410536023 244.70418839482284 319.4444410536023L244.70418839482284 319.4444410536023L221.883982793411 319.4444410536023Q216.51717554722921 319.4444410536023 214.21711529886554 317.00908314357025Q211.91705505050192 314.52862601298193 211.91705505050192 308.66572734068245L211.91705505050192 308.66572734068245L211.91705505050192 214.81424936333465Q211.91705505050192 203.85513876819024 208.35421662656606 198.39813308089614Q204.79137820263023 192.941127393602 196.85391538474784 192.941127393602L196.85391538474784 192.941127393602Q189.4125439929831 192.941127393602 183.053553894566 199.79620891813678Q176.69456379614888 206.69638966322768 172.9964277105446 219.00847687505657Q169.25319240438415 231.27546486632937 169.25319240438415 246.96999361986948L169.25319240438415 246.96999361986948L169.25319240438415 297.8870136277627L177.50634976615956 297.8870136277627Q182.87315701234138 297.8870136277627 185.17321726070503 300.32237153779477Q187.47327750906868 302.802828668383 187.47327750906868 308.66572734068245L187.47327750906868 308.66572734068245Q187.47327750906868 314.52862601298193 185.17321726070503 317.00908314357025Q182.87315701234138 319.4444410536023 177.50634976615956 319.4444410536023L177.50634976615956 319.4444410536023L132.45222843056587 319.4444410536023Q127.08542118438403 319.4444410536023 124.78536093602038 317.00908314357025Q122.48530068765675 314.52862601298193 122.48530068765675 308.66572734068245L122.48530068765675 308.66572734068245Q122.48530068765675 302.802828668383 124.78536093602038 300.32237153779477Q127.08542118438403 297.8870136277627 132.45222843056587 297.8870136277627L132.45222843056587 297.8870136277627L145.48590317129316 297.8870136277627L145.48590317129316 194.51960011306724L132.45222843056587 194.51960011306724Q127.08542118438403 194.51960011306724 124.78536093602038 192.03914298247898Q122.48530068765675 189.60378507244693 122.48530068765675 183.74088640014745L122.48530068765675 183.74088640014745Q122.48530068765675 177.87798772784794 124.78536093602038 175.39753059725967Q127.08542118438403 172.96217268722762 132.45222843056587 172.96217268722762L132.45222843056587 172.96217268722762L156.08422000198837 172.96217268722762Q161.49612646872637 172.96217268722762 163.79618671709 175.39753059725967Q166.09624696545364 177.87798772784794 166.09624696545364 183.74088640014745L166.09624696545364 183.74088640014745L166.09624696545364 199.43541515368756Q172.9062292694323 184.50757314960194 182.4221648067799 176.97600331672493Q191.93810034412752 169.44443348384794 203.0325086009404 169.44443348384794L203.0325086009404 169.44443348384794Q213.81122231386018 169.44443348384794 221.883982793411 176.75050721394422Q230.00184249351798 184.05658094404046 232.84309338855542 198.17263697811538L232.84309338855542 198.17263697811538Q246.95914942263033 169.44443348384794 269.2832635979245 169.44443348384794L269.2832635979245 169.44443348384794Q278.6639014736037 169.44443348384794 286.0150744242561 174.1347524216875Q293.4113465954647 178.8250713595271 297.7408717688551 188.38610611743084Q302.1154961628016 197.99224009589076 302.1154961628016 211.92789924774107L302.1154961628016 211.92789924774107L302.1154961628016 297.8870136277627L311.94712624404224 297.8870136277627Z " fill="#ffffff" transform="matrix(2.2499999313354513,0,0,2.2499999313354517,0,-249.99999084472722)"/><path d="MNaN 244.44444105360233 " fill="#FsFFF" transform="matrix(2.2499999313354513,0,0,2.2499999313354517,0,-249.99999084472722)"/></g></svg>